<svg width="1440" height="168" viewBox="0 0 1440 168" fill="none" xmlns="http://www.w3.org/2000/svg">
<g clip-path="url(#clip0_133_45)">
<path d="M300.431 36.448L-12.7021 121.774L-15.7987 116.627L141.428 -41.5789L7.28101 -230.083C-93.7555 -107.263 -150.545 32.279 -76.1778 156.086C-1.81012 279.893 193.647 282.528 387.198 214.393L300.431 36.448Z" fill="#FF8200"/>
<path d="M524.495 49.9325L705.936 381.508C706.557 382.646 707.857 383.225 709.123 382.941L711.701 382.349C712.996 382.052 713.914 380.913 713.94 379.595L719.557 121.444C719.587 120.037 720.627 118.851 722.019 118.645L985.581 79.3081C987.472 79.0253 989.113 80.6175 988.887 82.5183C966.713 267.137 894.557 427.535 729.755 465.368C564.583 503.298 403.22 341.163 302.687 122.643C301.96 121.069 302.78 119.202 304.426 118.672L521.058 48.5698C522.38 48.1463 523.818 48.7185 524.483 49.9353" fill="#BCC2CA"/>
<path d="M1351.26 841.095L1004.8 306.25L1012.59 297.394L1402.4 497.112L1675.05 133.69C1384.96 17.9793 1089.99 -4.99709 902.725 208.006C715.464 421.008 827.145 788.2 1070.1 1109.6L1351.26 841.103L1351.26 841.095Z" fill="#FF8200"/>
</g>
<defs>
<clipPath id="clip0_133_45">
<rect width="1440" height="168" fill="white"/>
</clipPath>
</defs>
</svg>
