<svg width="175" height="56" viewBox="0 0 175 56" fill="none" xmlns="http://www.w3.org/2000/svg">
<g clip-path="url(#clip0_133_29)">
<path d="M32.8247 -1.52588e-05L28.0637 16.9315H27.7361L24.7804 5.20555L12.3179 6.17634C15.1974 14.3019 20.0727 20.8299 27.8808 20.8299C35.689 20.8299 41.2499 11.8329 43.4819 0.932554L32.8323 -1.52588e-05H32.8247Z" fill="white"/>
<path d="M55.8073 32.938L38.9341 28.1605V27.8318L50.6197 24.8659L49.6522 12.3604C41.5546 15.2498 35.0491 20.142 35.0491 27.9771C35.0491 35.8122 44.0227 41.3846 54.8856 43.6167L55.8149 32.9304L55.8073 32.938Z" fill="white"/>
<path d="M22.9826 56L27.7436 39.0685H28.0712L31.0269 50.7868L43.4894 49.816C40.6099 41.6904 35.7346 35.1624 27.9265 35.1624C20.1183 35.1624 14.565 44.1671 12.3406 55.0674L22.9902 56H22.9826Z" fill="white"/>
<path d="M-3.8147e-06 23.062L16.8732 27.8395V28.1682L5.18766 31.1341L6.15511 43.6397C14.2527 40.7502 20.7583 35.858 20.7583 28.0229C20.7583 20.1878 11.7922 14.6077 0.929357 12.3757L-3.8147e-06 23.062Z" fill="white"/>
<path d="M132.799 18.4526C127.101 18.4526 123.277 22.504 123.277 28.5274C123.277 33.9547 126.286 37.6009 130.758 37.6009C133.995 37.6009 135.367 35.3994 135.854 34.2681L136.654 37.1193L141.148 36.8059V19.8668L140.981 19.8133C139.351 19.3088 136.128 18.4526 132.807 18.4526M135.534 22.8862V27.1133C135.534 31.501 134.552 33.4502 132.35 33.4502C130.149 33.4502 128.945 31.585 128.945 28.1987C128.945 24.6061 130.689 22.374 133.508 22.374C134.293 22.374 134.94 22.5345 135.534 22.8785" fill="white"/>
<path d="M74.227 25.5004C72.871 24.8354 71.7055 24.2544 71.7055 23.4824C71.7055 22.7486 72.4521 22.3129 73.7014 22.3129C74.7678 22.3129 76.2609 22.7027 77.6854 23.3295L78.7214 19.691V19.6298L78.5691 19.561C76.7561 18.766 74.7755 18.3533 72.8406 18.3533C69.0546 18.3533 66.5179 20.4095 66.5179 23.4747C66.5179 26.54 69.1383 27.9924 71.2408 29.1848C72.7948 30.0639 74.1356 30.8206 74.1356 31.9214C74.1356 33.0221 72.6501 33.1903 72.0102 33.1903C70.6847 33.1903 69.3212 32.8081 67.531 31.929L66.4188 35.8886L66.5407 35.9574C68.2699 36.9282 70.6162 37.5321 72.673 37.5321C76.8018 37.5321 79.5746 35.2389 79.5746 31.8296C79.5746 28.1299 76.4818 26.6088 74.227 25.5004Z" fill="white"/>
<path d="M114.898 19.0718C114.007 18.8043 112.521 18.4527 110.883 18.4527C105.741 18.4527 102.412 22.3205 102.412 28.2981C102.412 33.863 105.315 37.6009 109.634 37.6009C113.252 37.6009 114.555 35.4682 115.134 34.2375L115.911 37.1193L120.505 36.7677L120.748 10.4035L114.654 10.8927L114.898 19.0718ZM108.08 27.9771C108.08 25.4393 108.743 22.4046 111.904 22.4046H111.935C113.58 22.4123 114.898 23.8035 114.898 25.4546V26.7846C114.898 31.5163 113.885 33.4502 111.394 33.4502C109.383 33.4502 108.08 31.3022 108.08 27.9771Z" fill="white"/>
<path d="M166.729 12.8266C167.422 14.7835 168.603 16.3582 170.477 16.3582C172.191 16.3582 173.455 14.5542 174.072 12.2457L166.721 12.8266H166.729Z" fill="white"/>
<path d="M167.529 37.1575L173.295 36.7295L173.349 18.9342L167.11 19.3164L167.529 37.1575Z" fill="white"/>
<path d="M94.1168 28.2369C94.1168 31.3939 92.6466 33.519 90.4527 33.519C88.5711 33.519 87.6189 32.2042 87.6189 29.6205L87.8627 19.003L81.7685 19.454L82.0123 30.5837C82.0123 35.0172 84.5109 37.6697 88.6854 37.6697C91.3668 37.6697 93.355 36.5001 94.4748 34.2681L95.2518 37.1499L99.7158 36.7982L99.9596 18.9189L93.8654 19.4234L94.1092 28.2369H94.1168Z" fill="white"/>
<path d="M156.651 18.4908C153.969 18.4908 151.745 19.7521 150.495 21.9536L149.696 19.003L145.14 19.3775L144.896 37.1575L150.815 36.8059L150.747 28.5886C150.747 24.8736 152.164 22.825 154.731 22.825C156.734 22.825 157.885 24.3079 157.885 26.884L157.641 37.1499L163.72 36.7294L163.491 26.2495C163.491 21.2427 161.061 18.4908 156.658 18.4908" fill="white"/>
</g>
<defs>
<clipPath id="clip0_133_29">
<rect width="174.072" height="56" fill="white"/>
</clipPath>
</defs>
</svg>
